# xmcd CD database file
# Copyright (C) 1993-1998 Ti Kan
#
# Track frame offsets:
#	150
#	12367
#	24030
#	35872
#	56527
#	68085
#	81875
#	91810
#	101140
#	112652
#	130637
#	140580
#	154077
#	170430
#
# Disc length: 2399 seconds
#
# Revision: 0
# Processed by: cddbd v1.4b41PL1 Copyright (c) Steve Scherf et al.
# Submitted via: CDmax 1.5.3
#
DISCID=a9095d0e
DTITLE=Shaun McMonagle - All That I Am
DYEAR=1900
DGENRE=
TTITLE0=Something In My Heat
TTITLE1=Gorl From Donegal
TTITLE2=Holding Things Together
TTITLE3=My Father's House
TTITLE4=The Key's In The Mailbox
TTITLE5=Cottage On The Borderline
TTITLE6=Mamma Tried
TTITLE7=Lonesome Cowboy
TTITLE8=All I Can Be
TTITLE9=Lady From Glenfarne
TTITLE10=Down To The River
TTITLE11=For Every Inch I've Laughed, I've Cried A Mile
TTITLE12=Irish Harvest Day
TTITLE13=Forever And Ever
EXTD=Foam Records FRCD 053
EXTT0=
EXTT1=
EXTT2=
EXTT3=
EXTT4=
EXTT5=
EXTT6=
EXTT7=
EXTT8=
EXTT9=
EXTT10=
EXTT11=
EXTT12=
EXTT13=
PLAYORDER=
